<mxfile host="app.diagrams.net" modified="2024-03-26T15:05:01.619Z" agent="Mozilla/5.0 (Macintosh; Intel Mac OS X 10_15_7) AppleWebKit/605.1.15 (KHTML, like Gecko) Version/17.1 Safari/605.1.15" etag="La3AdaPpMsm46dCShfhr" version="24.0.7" type="github">
  <diagram name="Page-1" id="LZEZYHTYzOtUEbFa8NiY">
    <mxGraphModel dx="1198" dy="1159" grid="1" gridSize="10" guides="1" tooltips="1" connect="1" arrows="1" fold="1" page="1" pageScale="1" pageWidth="850" pageHeight="1100" math="0" shadow="0">
      <root>
        <mxCell id="0" />
        <mxCell id="1" parent="0" />
        <mxCell id="tMprcXPyBVk_uNO10McH-54" value="" style="group;dashed=1;strokeColor=none;" vertex="1" connectable="0" parent="1">
          <mxGeometry x="40" y="192" width="740" height="70" as="geometry" />
        </mxCell>
        <mxCell id="tMprcXPyBVk_uNO10McH-55" value="" style="group" vertex="1" connectable="0" parent="tMprcXPyBVk_uNO10McH-54">
          <mxGeometry x="570" width="170" height="70" as="geometry" />
        </mxCell>
        <mxCell id="tMprcXPyBVk_uNO10McH-56" value="TOKEN 128" style="rounded=1;whiteSpace=wrap;html=1;strokeColor=#FFB570;" vertex="1" parent="tMprcXPyBVk_uNO10McH-55">
          <mxGeometry x="80" width="90" height="70" as="geometry" />
        </mxCell>
        <mxCell id="tMprcXPyBVk_uNO10McH-57" value="" style="endArrow=none;html=1;rounded=0;entryX=0;entryY=0.5;entryDx=0;entryDy=0;strokeColor=#FFB570;" edge="1" parent="tMprcXPyBVk_uNO10McH-55">
          <mxGeometry width="50" height="50" relative="1" as="geometry">
            <mxPoint y="34" as="sourcePoint" />
            <mxPoint x="80" y="34" as="targetPoint" />
          </mxGeometry>
        </mxCell>
        <mxCell id="tMprcXPyBVk_uNO10McH-58" value="" style="group" vertex="1" connectable="0" parent="tMprcXPyBVk_uNO10McH-54">
          <mxGeometry width="480" height="70" as="geometry" />
        </mxCell>
        <mxCell id="tMprcXPyBVk_uNO10McH-59" value="" style="endArrow=none;html=1;rounded=0;exitX=0;exitY=0.5;exitDx=0;exitDy=0;strokeColor=#FFB570;" edge="1" parent="tMprcXPyBVk_uNO10McH-58">
          <mxGeometry width="50" height="50" relative="1" as="geometry">
            <mxPoint y="32.5" as="sourcePoint" />
            <mxPoint x="480" y="33" as="targetPoint" />
          </mxGeometry>
        </mxCell>
        <mxCell id="tMprcXPyBVk_uNO10McH-60" value="TOKEN1" style="rounded=1;whiteSpace=wrap;html=1;strokeColor=#FFB570;" vertex="1" parent="tMprcXPyBVk_uNO10McH-58">
          <mxGeometry width="90" height="70" as="geometry" />
        </mxCell>
        <mxCell id="tMprcXPyBVk_uNO10McH-61" value="TOKEN2" style="rounded=1;whiteSpace=wrap;html=1;strokeColor=#FFB570;" vertex="1" parent="tMprcXPyBVk_uNO10McH-58">
          <mxGeometry x="160" width="90" height="70" as="geometry" />
        </mxCell>
        <mxCell id="tMprcXPyBVk_uNO10McH-62" value="TOKEN3" style="rounded=1;whiteSpace=wrap;html=1;strokeColor=#FFB570;" vertex="1" parent="tMprcXPyBVk_uNO10McH-58">
          <mxGeometry x="320" width="90" height="70" as="geometry" />
        </mxCell>
        <mxCell id="tMprcXPyBVk_uNO10McH-63" value="" style="endArrow=none;dashed=1;html=1;dashPattern=1 3;strokeWidth=2;rounded=0;strokeColor=#FFB570;" edge="1" parent="tMprcXPyBVk_uNO10McH-54">
          <mxGeometry width="50" height="50" relative="1" as="geometry">
            <mxPoint x="480" y="34" as="sourcePoint" />
            <mxPoint x="570" y="34" as="targetPoint" />
          </mxGeometry>
        </mxCell>
        <mxCell id="tMprcXPyBVk_uNO10McH-66" value="&lt;font color=&quot;#ffb570&quot; style=&quot;font-size: 24px;&quot;&gt;[Labels]&lt;/font&gt;" style="text;html=1;align=center;verticalAlign=middle;whiteSpace=wrap;rounded=0;" vertex="1" parent="tMprcXPyBVk_uNO10McH-54">
          <mxGeometry x="480" y="14" width="80" as="geometry" />
        </mxCell>
        <mxCell id="tMprcXPyBVk_uNO10McH-22" value="" style="group" vertex="1" connectable="0" parent="1">
          <mxGeometry x="40" y="250" width="740" height="80" as="geometry" />
        </mxCell>
        <mxCell id="tMprcXPyBVk_uNO10McH-18" value="" style="group" vertex="1" connectable="0" parent="tMprcXPyBVk_uNO10McH-22">
          <mxGeometry x="570" width="170" height="70" as="geometry" />
        </mxCell>
        <mxCell id="tMprcXPyBVk_uNO10McH-8" value="TOKEN 128" style="rounded=1;whiteSpace=wrap;html=1;" vertex="1" parent="tMprcXPyBVk_uNO10McH-18">
          <mxGeometry x="80" width="90" height="70" as="geometry" />
        </mxCell>
        <mxCell id="tMprcXPyBVk_uNO10McH-14" value="" style="endArrow=none;html=1;rounded=0;entryX=0;entryY=0.5;entryDx=0;entryDy=0;" edge="1" parent="tMprcXPyBVk_uNO10McH-18">
          <mxGeometry width="50" height="50" relative="1" as="geometry">
            <mxPoint y="34" as="sourcePoint" />
            <mxPoint x="80" y="34" as="targetPoint" />
          </mxGeometry>
        </mxCell>
        <mxCell id="tMprcXPyBVk_uNO10McH-19" value="" style="group" vertex="1" connectable="0" parent="tMprcXPyBVk_uNO10McH-22">
          <mxGeometry width="480" height="70" as="geometry" />
        </mxCell>
        <mxCell id="tMprcXPyBVk_uNO10McH-1" value="" style="endArrow=none;html=1;rounded=0;exitX=0;exitY=0.5;exitDx=0;exitDy=0;" edge="1" parent="tMprcXPyBVk_uNO10McH-19">
          <mxGeometry width="50" height="50" relative="1" as="geometry">
            <mxPoint y="32.5" as="sourcePoint" />
            <mxPoint x="480" y="33" as="targetPoint" />
          </mxGeometry>
        </mxCell>
        <mxCell id="tMprcXPyBVk_uNO10McH-9" value="TOKEN 1" style="rounded=1;whiteSpace=wrap;html=1;" vertex="1" parent="tMprcXPyBVk_uNO10McH-19">
          <mxGeometry width="90" height="70" as="geometry" />
        </mxCell>
        <mxCell id="tMprcXPyBVk_uNO10McH-10" value="TOKEN 2" style="rounded=1;whiteSpace=wrap;html=1;" vertex="1" parent="tMprcXPyBVk_uNO10McH-19">
          <mxGeometry x="160" width="90" height="70" as="geometry" />
        </mxCell>
        <mxCell id="tMprcXPyBVk_uNO10McH-11" value="TOKEN 3" style="rounded=1;whiteSpace=wrap;html=1;" vertex="1" parent="tMprcXPyBVk_uNO10McH-19">
          <mxGeometry x="320" width="90" height="70" as="geometry" />
        </mxCell>
        <mxCell id="tMprcXPyBVk_uNO10McH-21" value="" style="endArrow=none;dashed=1;html=1;dashPattern=1 3;strokeWidth=2;rounded=0;" edge="1" parent="tMprcXPyBVk_uNO10McH-22">
          <mxGeometry width="50" height="50" relative="1" as="geometry">
            <mxPoint x="480" y="34" as="sourcePoint" />
            <mxPoint x="570" y="34" as="targetPoint" />
          </mxGeometry>
        </mxCell>
        <mxCell id="tMprcXPyBVk_uNO10McH-64" value="&lt;font style=&quot;font-size: 24px;&quot;&gt;[Sequence]&lt;/font&gt;" style="text;html=1;align=center;verticalAlign=middle;whiteSpace=wrap;rounded=0;" vertex="1" parent="tMprcXPyBVk_uNO10McH-22">
          <mxGeometry x="485" y="10" width="80" as="geometry" />
        </mxCell>
        <mxCell id="tMprcXPyBVk_uNO10McH-43" value="" style="group" vertex="1" connectable="0" parent="1">
          <mxGeometry x="40" y="501" width="740" height="70" as="geometry" />
        </mxCell>
        <mxCell id="tMprcXPyBVk_uNO10McH-44" value="" style="group" vertex="1" connectable="0" parent="tMprcXPyBVk_uNO10McH-43">
          <mxGeometry x="570" y="2" width="170" height="70" as="geometry" />
        </mxCell>
        <mxCell id="tMprcXPyBVk_uNO10McH-45" value="MASK" style="rounded=1;whiteSpace=wrap;html=1;" vertex="1" parent="tMprcXPyBVk_uNO10McH-44">
          <mxGeometry x="80" width="90" height="70" as="geometry" />
        </mxCell>
        <mxCell id="tMprcXPyBVk_uNO10McH-46" value="" style="endArrow=none;html=1;rounded=0;entryX=0;entryY=0.5;entryDx=0;entryDy=0;" edge="1" parent="tMprcXPyBVk_uNO10McH-44">
          <mxGeometry width="50" height="50" relative="1" as="geometry">
            <mxPoint y="34" as="sourcePoint" />
            <mxPoint x="80" y="34" as="targetPoint" />
          </mxGeometry>
        </mxCell>
        <mxCell id="tMprcXPyBVk_uNO10McH-47" value="" style="group" vertex="1" connectable="0" parent="tMprcXPyBVk_uNO10McH-43">
          <mxGeometry width="480" height="70" as="geometry" />
        </mxCell>
        <mxCell id="tMprcXPyBVk_uNO10McH-48" value="" style="endArrow=none;html=1;rounded=0;exitX=0;exitY=0.5;exitDx=0;exitDy=0;" edge="1" parent="tMprcXPyBVk_uNO10McH-47">
          <mxGeometry width="50" height="50" relative="1" as="geometry">
            <mxPoint y="32.5" as="sourcePoint" />
            <mxPoint x="480" y="33" as="targetPoint" />
          </mxGeometry>
        </mxCell>
        <mxCell id="tMprcXPyBVk_uNO10McH-49" value="MASK" style="rounded=1;whiteSpace=wrap;html=1;" vertex="1" parent="tMprcXPyBVk_uNO10McH-47">
          <mxGeometry width="90" height="70" as="geometry" />
        </mxCell>
        <mxCell id="tMprcXPyBVk_uNO10McH-50" value="MASK" style="rounded=1;whiteSpace=wrap;html=1;" vertex="1" parent="tMprcXPyBVk_uNO10McH-47">
          <mxGeometry x="160" y="2" width="90" height="70" as="geometry" />
        </mxCell>
        <mxCell id="tMprcXPyBVk_uNO10McH-51" value="MASK" style="rounded=1;whiteSpace=wrap;html=1;" vertex="1" parent="tMprcXPyBVk_uNO10McH-47">
          <mxGeometry x="320" y="2" width="90" height="70" as="geometry" />
        </mxCell>
        <mxCell id="tMprcXPyBVk_uNO10McH-52" value="" style="endArrow=none;dashed=1;html=1;dashPattern=1 3;strokeWidth=2;rounded=0;" edge="1" parent="tMprcXPyBVk_uNO10McH-43">
          <mxGeometry width="50" height="50" relative="1" as="geometry">
            <mxPoint x="480" y="36" as="sourcePoint" />
            <mxPoint x="570" y="36" as="targetPoint" />
          </mxGeometry>
        </mxCell>
        <mxCell id="tMprcXPyBVk_uNO10McH-53" value="&lt;font style=&quot;font-size: 40px;&quot;&gt;...&lt;/font&gt;" style="text;html=1;align=center;verticalAlign=middle;whiteSpace=wrap;rounded=0;rotation=90;" vertex="1" parent="1">
          <mxGeometry x="380" y="460" width="60" height="30" as="geometry" />
        </mxCell>
        <mxCell id="tMprcXPyBVk_uNO10McH-33" value="" style="group" vertex="1" connectable="0" parent="1">
          <mxGeometry x="40" y="380" width="740" height="70" as="geometry" />
        </mxCell>
        <mxCell id="tMprcXPyBVk_uNO10McH-37" value="" style="group" vertex="1" connectable="0" parent="tMprcXPyBVk_uNO10McH-33">
          <mxGeometry width="740" height="70" as="geometry" />
        </mxCell>
        <mxCell id="tMprcXPyBVk_uNO10McH-38" value="" style="endArrow=none;html=1;rounded=0;exitX=0;exitY=0.5;exitDx=0;exitDy=0;" edge="1" parent="tMprcXPyBVk_uNO10McH-37">
          <mxGeometry width="50" height="50" relative="1" as="geometry">
            <mxPoint y="32.5" as="sourcePoint" />
            <mxPoint x="480" y="33" as="targetPoint" />
          </mxGeometry>
        </mxCell>
        <mxCell id="tMprcXPyBVk_uNO10McH-75" value="" style="group;dashed=1;strokeColor=none;" vertex="1" connectable="0" parent="tMprcXPyBVk_uNO10McH-37">
          <mxGeometry y="-25" width="740" height="70" as="geometry" />
        </mxCell>
        <mxCell id="tMprcXPyBVk_uNO10McH-79" value="" style="group" vertex="1" connectable="0" parent="tMprcXPyBVk_uNO10McH-75">
          <mxGeometry width="480" height="70" as="geometry" />
        </mxCell>
        <mxCell id="tMprcXPyBVk_uNO10McH-80" value="" style="endArrow=none;html=1;rounded=0;exitX=0;exitY=0.5;exitDx=0;exitDy=0;strokeColor=#FFB570;" edge="1" parent="tMprcXPyBVk_uNO10McH-79">
          <mxGeometry width="50" height="50" relative="1" as="geometry">
            <mxPoint y="14.5" as="sourcePoint" />
            <mxPoint x="480" y="15" as="targetPoint" />
          </mxGeometry>
        </mxCell>
        <mxCell id="tMprcXPyBVk_uNO10McH-81" value="TOKEN1" style="rounded=1;whiteSpace=wrap;html=1;strokeColor=#FFB570;" vertex="1" parent="tMprcXPyBVk_uNO10McH-79">
          <mxGeometry y="-22" width="90" height="70" as="geometry" />
        </mxCell>
        <mxCell id="tMprcXPyBVk_uNO10McH-82" value="TOKEN2" style="rounded=1;whiteSpace=wrap;html=1;strokeColor=#FFB570;" vertex="1" parent="tMprcXPyBVk_uNO10McH-79">
          <mxGeometry x="160" y="-22" width="90" height="70" as="geometry" />
        </mxCell>
        <mxCell id="tMprcXPyBVk_uNO10McH-83" value="TOKEN3" style="rounded=1;whiteSpace=wrap;html=1;strokeColor=#FFB570;" vertex="1" parent="tMprcXPyBVk_uNO10McH-79">
          <mxGeometry x="320" y="-22" width="90" height="70" as="geometry" />
        </mxCell>
        <mxCell id="tMprcXPyBVk_uNO10McH-76" value="" style="group" vertex="1" connectable="0" parent="tMprcXPyBVk_uNO10McH-75">
          <mxGeometry x="570" y="-20" width="170" height="70" as="geometry" />
        </mxCell>
        <mxCell id="tMprcXPyBVk_uNO10McH-77" value="TOKEN 128" style="rounded=1;whiteSpace=wrap;html=1;strokeColor=#FFB570;" vertex="1" parent="tMprcXPyBVk_uNO10McH-76">
          <mxGeometry x="80" width="90" height="70" as="geometry" />
        </mxCell>
        <mxCell id="tMprcXPyBVk_uNO10McH-78" value="" style="endArrow=none;html=1;rounded=0;entryX=0;entryY=0.5;entryDx=0;entryDy=0;strokeColor=#FFB570;" edge="1" parent="tMprcXPyBVk_uNO10McH-76">
          <mxGeometry width="50" height="50" relative="1" as="geometry">
            <mxPoint y="34" as="sourcePoint" />
            <mxPoint x="80" y="34" as="targetPoint" />
          </mxGeometry>
        </mxCell>
        <mxCell id="tMprcXPyBVk_uNO10McH-84" value="" style="endArrow=none;dashed=1;html=1;dashPattern=1 3;strokeWidth=2;rounded=0;strokeColor=#FFB570;" edge="1" parent="tMprcXPyBVk_uNO10McH-75">
          <mxGeometry width="50" height="50" relative="1" as="geometry">
            <mxPoint x="480" y="24" as="sourcePoint" />
            <mxPoint x="570" y="24" as="targetPoint" />
          </mxGeometry>
        </mxCell>
        <mxCell id="tMprcXPyBVk_uNO10McH-39" value="MASK" style="rounded=1;whiteSpace=wrap;html=1;" vertex="1" parent="tMprcXPyBVk_uNO10McH-37">
          <mxGeometry width="90" height="70" as="geometry" />
        </mxCell>
        <mxCell id="tMprcXPyBVk_uNO10McH-40" value="MASK" style="rounded=1;whiteSpace=wrap;html=1;" vertex="1" parent="tMprcXPyBVk_uNO10McH-37">
          <mxGeometry x="160" width="90" height="70" as="geometry" />
        </mxCell>
        <mxCell id="tMprcXPyBVk_uNO10McH-41" value="MASK" style="rounded=1;whiteSpace=wrap;html=1;" vertex="1" parent="tMprcXPyBVk_uNO10McH-37">
          <mxGeometry x="320" width="90" height="70" as="geometry" />
        </mxCell>
        <mxCell id="tMprcXPyBVk_uNO10McH-34" value="" style="group" vertex="1" connectable="0" parent="tMprcXPyBVk_uNO10McH-33">
          <mxGeometry x="570" width="170" height="70" as="geometry" />
        </mxCell>
        <mxCell id="tMprcXPyBVk_uNO10McH-35" value="" style="rounded=1;whiteSpace=wrap;html=1;" vertex="1" parent="tMprcXPyBVk_uNO10McH-34">
          <mxGeometry x="80" width="90" height="70" as="geometry" />
        </mxCell>
        <mxCell id="tMprcXPyBVk_uNO10McH-36" value="" style="endArrow=none;html=1;rounded=0;entryX=0;entryY=0.5;entryDx=0;entryDy=0;" edge="1" parent="tMprcXPyBVk_uNO10McH-34">
          <mxGeometry width="50" height="50" relative="1" as="geometry">
            <mxPoint y="37" as="sourcePoint" />
            <mxPoint x="80" y="37" as="targetPoint" />
          </mxGeometry>
        </mxCell>
        <mxCell id="tMprcXPyBVk_uNO10McH-42" value="" style="endArrow=none;dashed=1;html=1;dashPattern=1 3;strokeWidth=2;rounded=0;" edge="1" parent="tMprcXPyBVk_uNO10McH-33">
          <mxGeometry width="50" height="50" relative="1" as="geometry">
            <mxPoint x="480" y="37" as="sourcePoint" />
            <mxPoint x="570" y="37" as="targetPoint" />
          </mxGeometry>
        </mxCell>
      </root>
    </mxGraphModel>
  </diagram>
</mxfile>
